<svg xmlns="http://www.w3.org/2000/svg" xmlns:xlink="http://www.w3.org/1999/xlink" width="500" zoomAndPan="magnify" viewBox="0 0 375 374.999991" height="500" preserveAspectRatio="xMidYMid meet" version="1.0"><defs><clipPath id="fa17195da8"><path d="M 43.144531 43.144531 L 331.894531 43.144531 L 331.894531 331.894531 L 43.144531 331.894531 Z M 43.144531 43.144531 " clip-rule="nonzero"/></clipPath></defs><g clip-path="url(#fa17195da8)"><path fill="#8bc34a" d="M 331.894531 187.519531 C 331.894531 267.28125 267.28125 331.894531 187.519531 331.894531 C 107.753906 331.894531 43.144531 267.28125 43.144531 187.519531 C 43.144531 107.753906 107.753906 43.144531 187.519531 43.144531 C 267.28125 43.144531 331.894531 107.753906 331.894531 187.519531 Z M 331.894531 187.519531 " fill-opacity="1" fill-rule="nonzero"/></g><path fill="#ffffff" d="M 209.671875 270.8125 L 209.671875 175.777344 L 230.667969 196.832031 C 232.867188 198.96875 236.335938 198.96875 238.535156 196.832031 L 262.078125 173.289062 C 264.21875 171.089844 264.21875 167.5625 262.078125 165.421875 L 191.394531 94.738281 C 189.195312 92.597656 185.667969 92.597656 183.527344 94.738281 L 112.84375 165.421875 C 110.703125 167.5625 110.703125 171.089844 112.84375 173.289062 L 136.386719 196.832031 C 138.523438 198.96875 142.054688 198.96875 144.25 196.832031 L 165.25 175.777344 L 165.25 270.8125 C 165.25 273.875 167.734375 276.363281 170.800781 276.363281 L 204.117188 276.363281 C 207.183594 276.363281 209.671875 273.875 209.671875 270.8125 Z M 209.671875 270.8125 " fill-opacity="1" fill-rule="nonzero"/></svg>